<svg width="33" height="33" viewBox="0 0 33 33" fill="none" xmlns="http://www.w3.org/2000/svg">
<path d="M0.68457 5.06885C0.68457 2.30742 2.92315 0.0688477 5.68457 0.0688477H27.6846C30.446 0.0688477 32.6846 2.30742 32.6846 5.06885V27.0688C32.6846 29.8303 30.446 32.0688 27.6846 32.0688H5.68457C2.92315 32.0688 0.68457 29.8303 0.68457 27.0688V5.06885Z" fill="#E2ECF3"/>
<g clip-path="url(#clip0_2026_4749)">
<path fill-rule="evenodd" clip-rule="evenodd" d="M26.3596 9.80645L23.8471 12.3564L23.8346 12.3314C22.5971 13.594 21.672 13.8814 19.872 13.694L18.5846 14.994C19.0346 15.8189 18.922 16.8815 18.2346 17.5815C17.3971 18.444 16.0096 18.444 15.1471 17.6064C14.2846 16.7689 14.272 15.3815 15.122 14.5189C15.8096 13.8189 16.8596 13.694 17.6971 14.1314L18.9846 12.8314C18.772 11.0314 19.0346 10.1064 20.272 8.84395L22.7846 6.29395L23.4846 9.16895L26.3596 9.80645ZM20.4221 15.0189H20.7596V15.0439C21.2221 15.0439 21.6347 14.9939 22.0221 14.9064C22.1096 15.2939 22.1596 15.6814 22.1596 16.0939C22.1596 19.1189 19.7096 21.5689 16.6847 21.5689C13.6596 21.5689 11.2096 19.1189 11.2096 16.0939C11.2096 13.0689 13.6596 10.6189 16.6847 10.6189C17.0596 10.6189 17.4347 10.6564 17.7847 10.7314C17.6847 11.2189 17.6471 11.7439 17.6847 12.3314C17.3596 12.2439 17.0347 12.1814 16.6847 12.1814C14.5347 12.1814 12.7847 13.9314 12.7847 16.0814C12.7847 18.2314 14.5347 19.9814 16.6847 19.9814C18.8347 19.9814 20.5847 18.2314 20.5847 16.0814C20.5847 15.7064 20.5221 15.3564 20.4221 15.0189ZM23.8846 13.9814C24.1721 13.7689 24.4471 13.5189 24.7346 13.2314L25.3846 12.5689C25.8096 13.6564 26.0596 14.8314 26.0596 16.0689C26.0596 21.2439 21.8596 25.444 16.6846 25.444C11.5096 25.444 7.30957 21.2439 7.30957 16.0689C7.30957 10.8939 11.5096 6.69394 16.6846 6.69394C17.8596 6.69394 18.9846 6.91894 20.0221 7.31894L19.3846 7.96894C19.0971 8.25644 18.8596 8.54394 18.6471 8.83144C18.0221 8.66894 17.3596 8.56894 16.6846 8.56894C12.5471 8.56894 9.18457 11.9314 9.18457 16.0689C9.18457 20.2064 12.5471 23.5689 16.6846 23.5689C20.8221 23.5689 24.1846 20.2064 24.1846 16.0689C24.1846 15.3439 24.0721 14.6439 23.8846 13.9814Z" fill="#0A85D1"/>
</g>
<defs>
<clipPath id="clip0_2026_4749">
<rect width="20" height="20" fill="white" transform="translate(6.68457 6.06885)"/>
</clipPath>
</defs>
</svg>
