<svg width="33" height="33" viewBox="0 0 33 33" fill="none" xmlns="http://www.w3.org/2000/svg">
<path d="M0.68457 5.06885C0.68457 2.30742 2.92315 0.0688477 5.68457 0.0688477H27.6846C30.446 0.0688477 32.6846 2.30742 32.6846 5.06885V27.0688C32.6846 29.8303 30.446 32.0688 27.6846 32.0688H5.68457C2.92315 32.0688 0.68457 29.8303 0.68457 27.0688V5.06885Z" fill="#F0E1F9"/>
<g clip-path="url(#clip0_2026_4704)">
<path d="M15.3978 11.05C15.7769 10.913 15.7769 10.6695 15.3978 10.5173L13.3415 9.6956C12.977 9.55865 12.554 9.11734 12.4082 8.72169L11.6207 6.57604C11.4895 6.18038 11.2561 6.18038 11.1103 6.57604L10.3228 8.72169C10.1915 9.10213 9.76862 9.54343 9.38945 9.6956L7.3332 10.5173C6.95404 10.6543 6.95404 10.8978 7.3332 11.05L9.38945 11.8717C9.75404 12.0086 10.177 12.45 10.3228 12.8456L11.1103 14.9912C11.2415 15.3869 11.4749 15.3869 11.6207 14.9912L12.4082 12.8456C12.5395 12.4652 12.9624 12.0239 13.3415 11.8717L15.3978 11.05Z" fill="#9D34DA"/>
<path d="M25.4164 18.5672C26.5831 18.2628 26.5831 17.7606 25.4164 17.4563L22.8351 16.7867C21.6685 16.4824 20.4726 15.2345 20.181 14.0172L19.5393 11.3237C19.2476 10.1063 18.7664 10.1063 18.4747 11.3237L17.8331 14.0172C17.5414 15.2345 16.3456 16.4824 15.1789 16.7867L12.5977 17.4563C11.431 17.7606 11.431 18.2628 12.5977 18.5672L15.1789 19.2367C16.3456 19.5411 17.5414 20.7889 17.8331 22.0063L18.4747 24.6998C18.7664 25.9172 19.2476 25.9172 19.5393 24.6998L20.181 22.0063C20.4726 20.7889 21.6685 19.5411 22.8351 19.2367L25.4164 18.5672Z" fill="#9D34DA"/>
</g>
<defs>
<clipPath id="clip0_2026_4704">
<rect width="20" height="20" fill="white" transform="translate(6.68457 6.06885)"/>
</clipPath>
</defs>
</svg>
