<svg width="33" height="33" viewBox="0 0 33 33" fill="none" xmlns="http://www.w3.org/2000/svg">
<path d="M0.68457 5.06885C0.68457 2.30742 2.92315 0.0688477 5.68457 0.0688477H27.6846C30.446 0.0688477 32.6846 2.30742 32.6846 5.06885V27.0688C32.6846 29.8303 30.446 32.0688 27.6846 32.0688H5.68457C2.92315 32.0688 0.68457 29.8303 0.68457 27.0688V5.06885Z" fill="#FCE9E8"/>
<g clip-path="url(#clip0_2026_4734)">
<path d="M15.4342 23.0938H9.22168C8.77168 23.0938 8.39668 22.7188 8.39668 22.2688V14.4938C8.39668 14.0063 8.64668 13.7313 9.12168 13.7313H9.49668V12.3313H8.72168C7.68418 12.3313 6.84668 13.1688 6.84668 14.2063V22.6438C6.84668 23.6813 7.68418 24.5188 8.72168 24.5188H15.4342V23.0938ZM24.6592 12.3188H23.8842V13.7188H24.2967C24.7467 13.7188 24.9717 13.9813 24.9717 14.3938V22.2813C24.9717 22.7313 24.6092 23.1063 24.1467 23.1063H17.9342V24.5063H24.6592C25.6967 24.5063 26.5342 23.6688 26.5342 22.6313V14.1938C26.5342 13.1563 25.6967 12.3188 24.6592 12.3188Z" fill="#EA4E43"/>
<path d="M23.0969 7.94385C20.9344 8.23135 18.3469 9.08135 16.6969 10.0938C15.0344 9.08135 12.4469 8.23135 10.2969 7.94385V20.7563C12.0719 20.9688 13.9094 21.3813 15.7719 22.1063L16.7094 22.5188L17.6469 22.1063C19.5094 21.3813 21.3469 20.9563 23.1219 20.7563V7.94385H23.0969ZM12.1594 19.3563V10.1063C13.4969 10.3438 15.0469 10.9438 15.7594 11.5188V20.3688C14.7219 19.9438 13.2719 19.5563 12.1594 19.3563ZM21.2219 19.3563C20.1219 19.5563 18.6594 19.9438 17.6219 20.3688V11.5188C18.3219 10.9313 19.8844 10.3438 21.2219 10.1063V19.3563Z" fill="#EA4E43"/>
</g>
<defs>
<clipPath id="clip0_2026_4734">
<rect width="20" height="20" fill="white" transform="translate(6.68457 6.06885)"/>
</clipPath>
</defs>
</svg>
