<svg width="27" height="27" viewBox="0 0 27 27" fill="none" xmlns="http://www.w3.org/2000/svg">
<g clip-path="url(#clip0_2026_4415)">
<path d="M2.61507 25.9577C3.52942 25.9599 4.29384 25.2884 4.29694 24.4405L4.3212 17.8199C4.73722 17.7087 5.70798 17.4366 7.06566 17.4399C11.956 17.4517 15.5912 19.7546 20.4815 19.7664C22.5596 19.7713 23.8075 19.4876 24.9036 19.0289C25.9581 18.5825 26.4876 17.7485 26.492 16.564L26.5361 4.50706C26.54 3.45972 25.7391 2.74709 24.5753 2.74429C23.6194 2.742 22.4265 3.1506 20.4454 3.14583C15.7074 3.13445 11.9199 0.831152 7.02955 0.819402C5.02077 0.814575 3.86994 1.07365 2.63509 1.58189C1.60836 2.00335 1.02413 2.6503 1.01997 3.78492L0.944345 24.4324C0.941286 25.2678 1.70073 25.9554 2.61507 25.9577ZM4.49692 11.4489L4.51017 7.83308C4.84371 7.54711 5.69006 7.20003 7.117 7.20346C7.51876 7.20442 8.37751 7.25636 9.01446 7.34517L9.02656 4.04106C10.6606 4.24448 12.1967 4.68457 13.7745 5.11229L13.7624 8.40393C15.2848 8.85645 17.0151 9.23466 18.5107 9.40037L18.5228 6.09623C19.1044 6.15997 19.6999 6.19881 20.3095 6.20027C21.3763 6.20284 22.3186 6.11782 23.0258 5.94496L23.0138 9.23657C22.4175 9.38477 21.4335 9.50714 20.2975 9.50437C19.8818 9.50342 19.2723 9.48946 18.5107 9.40037L18.4974 13.0162C19.3006 13.1054 20.0071 13.1195 20.5336 13.1208C21.6004 13.1234 22.3488 13.0254 23.0005 12.8649L22.9888 16.0568C22.683 16.3428 21.7951 16.6773 20.3543 16.6739C19.7309 16.6724 19.1216 16.6086 18.4846 16.5198L18.4974 13.0162C16.7942 12.8001 15.3269 12.4724 13.7492 12.0198L13.7367 15.4361C12.242 15.0334 10.6917 14.6433 8.98834 14.477L9.00121 10.961C8.475 10.8974 7.92112 10.8213 7.10376 10.8193C5.67682 10.8158 4.83046 11.1629 4.49692 11.4489ZM9.00121 10.961C10.7322 11.1896 12.0745 11.5793 13.7492 12.0198L13.7624 8.40393C12.1846 7.98868 10.7592 7.57379 9.01446 7.34517L9.00121 10.961Z" fill="#0A85D1"/>
</g>
<defs>
<clipPath id="clip0_2026_4415">
<rect width="26" height="26" fill="white" transform="translate(0.68457 0.380859)"/>
</clipPath>
</defs>
</svg>
