<svg width="27" height="27" viewBox="0 0 27 27" fill="none" xmlns="http://www.w3.org/2000/svg">
<g clip-path="url(#clip0_2026_4395)">
<mask id="mask0_2026_4395" style="mask-type:luminance" maskUnits="userSpaceOnUse" x="1" y="0" width="26" height="27">
<path d="M22.1448 0.483398H4.9355C2.76306 0.483398 1.00195 2.28853 1.00195 4.51528V22.1548C1.00195 24.3815 2.76306 26.1867 4.9355 26.1867H22.1448C24.3172 26.1867 26.0783 24.3815 26.0783 22.1548V4.51528C26.0783 2.28853 24.3172 0.483398 22.1448 0.483398Z" fill="white"/>
</mask>
<g mask="url(#mask0_2026_4395)">
<path d="M10.7388 7.92445H16.3313C16.9243 7.92445 17.271 7.54102 17.271 6.90512V5.92326C17.271 5.27802 16.9243 4.90397 16.3313 4.90397H15.6836C15.6014 3.76311 14.68 2.84668 13.5396 2.84668C12.3992 2.84668 11.4778 3.76311 11.3957 4.90397H10.7388C10.1549 4.90397 9.8082 5.27802 9.8082 5.92326V6.90512C9.8082 7.54102 10.1549 7.92445 10.7388 7.92445ZM13.5396 5.82974C13.0834 5.82974 12.7094 5.43699 12.7094 4.98813C12.7094 4.52057 13.0834 4.14651 13.5396 4.14651C13.9958 4.14651 14.3607 4.52057 14.3607 4.98813C14.3607 5.43699 13.9958 5.82974 13.5396 5.82974ZM8.70428 26.0472H18.3749C20.4003 26.0472 21.5863 24.8222 21.5863 22.7182V8.61644C21.5863 6.53109 20.4185 5.27802 18.4297 5.27802H18.2381C18.3202 5.46504 18.3567 5.68947 18.3567 5.92326V6.83031C18.3567 7.11085 18.3202 7.36337 18.229 7.58782H18.3658C18.9953 7.58782 19.3329 7.99927 19.3329 8.63516V22.6901C19.3329 23.3541 18.9588 23.7468 18.2837 23.7468H8.7864C8.11129 23.7468 7.73727 23.3541 7.73727 22.6901V8.63516C7.73727 7.99927 8.08395 7.58782 8.71341 7.58782H8.85026C8.75907 7.36337 8.72254 7.11085 8.72254 6.83031V5.92326C8.72254 5.68947 8.75907 5.46504 8.83206 5.27802H8.64955C6.66071 5.27802 5.49293 6.53109 5.49293 8.61644V22.7182C5.49293 24.8222 6.67895 26.0472 8.70428 26.0472ZM10.0089 13.4604C10.529 13.4604 10.9395 13.0396 10.9395 12.5066C10.9395 11.9829 10.529 11.5621 10.0089 11.5621C9.50717 11.5621 9.08749 11.9923 9.08749 12.5066C9.08749 13.0303 9.50717 13.4604 10.0089 13.4604ZM12.6273 13.3014H17.2254C17.6542 13.3014 18.0009 12.9461 18.0009 12.5066C18.0009 12.0764 17.6542 11.7117 17.2254 11.7117H12.6273C12.1985 11.7117 11.8518 12.0764 11.8518 12.5066C11.8518 12.9461 12.1985 13.3014 12.6273 13.3014ZM10.0089 16.752C10.529 16.752 10.9395 16.3312 10.9395 15.7982C10.9395 15.2746 10.5198 14.8631 10.0089 14.8631C9.49804 14.8631 9.08749 15.2839 9.08749 15.7982C9.08749 16.3312 9.49804 16.752 10.0089 16.752ZM12.6273 16.6025H17.2254C17.6633 16.6025 18.0009 16.2471 18.0009 15.7982C18.0009 15.3681 17.6542 15.0127 17.2254 15.0127H12.6273C12.1985 15.0127 11.8518 15.3681 11.8518 15.7982C11.8518 16.2471 12.1894 16.6025 12.6273 16.6025ZM10.0089 20.2214C10.529 20.2214 10.9395 19.81 10.9395 19.2769C10.9395 18.7439 10.529 18.3324 10.0089 18.3324C9.50717 18.3324 9.08749 18.7533 9.08749 19.2769C9.08749 19.8006 9.50717 20.2214 10.0089 20.2214ZM12.6273 20.0718H17.2254C17.6542 20.0718 18.0009 19.7164 18.0009 19.2769C18.0009 18.8374 17.6542 18.4914 17.2254 18.4914H12.6273C12.1985 18.4914 11.8518 18.8374 11.8518 19.2769C11.8518 19.7164 12.1985 20.0718 12.6273 20.0718ZM5.86698 42.3537H21.2031C23.2924 42.3537 24.4236 41.1941 24.4236 39.0714V33.7224C24.4236 32.3945 24.2594 31.8335 23.6664 31.0667L20.9203 27.4103C19.7525 25.8674 19.1778 25.4091 17.4717 25.4091H9.59836C7.90145 25.4091 7.32672 25.8674 6.14981 27.4103L3.40371 31.0667C2.81983 31.8428 2.64648 32.3945 2.64648 33.7224V39.0714C2.64648 41.1941 3.78689 42.3537 5.86698 42.3537ZM13.5396 36.0977C12.1346 36.0977 11.2771 35.0971 11.2771 33.8908V33.7599C11.2771 33.311 11.0216 32.8808 10.4742 32.8808H5.46556C5.08239 32.8808 5.02765 32.5629 5.21011 32.3104L8.44884 27.9901C8.7864 27.5413 9.18781 27.3355 9.72614 27.3355H17.344C17.8823 27.3355 18.2837 27.5413 18.6212 27.9901L21.8509 32.3104C22.0425 32.5629 21.9786 32.8808 21.6045 32.8808H16.5959C16.0485 32.8808 15.7931 33.311 15.7931 33.7599V33.8908C15.7931 35.0971 14.9355 36.0977 13.5396 36.0977Z" fill="#F5A300"/>
</g>
</g>
<defs>
<clipPath id="clip0_2026_4395">
<rect width="26" height="26" fill="white" transform="translate(0.68457 0.318359)"/>
</clipPath>
</defs>
</svg>
