<svg width="27" height="27" viewBox="0 0 27 27" fill="none" xmlns="http://www.w3.org/2000/svg">
<path d="M22.0255 7.7689L15.4831 2.46808C15.101 2.14971 14.6076 1.97461 14.0982 1.97461H6.71207C5.50227 1.97461 4.53125 2.94563 4.53125 4.15543V22.0795C4.53125 23.2893 5.51819 24.2603 6.71207 24.2603H20.6566C21.8664 24.2603 22.8374 23.2893 22.8374 22.0795V9.47216C22.8374 8.81951 22.5349 8.18277 22.0255 7.7689ZM15.0692 4.15543L20.577 8.96277C20.7998 9.15379 20.6725 9.51992 20.37 9.51992H15.6582C15.3398 9.51992 15.0692 9.26522 15.0692 8.93094V4.15543ZM19.7651 22.0636H7.58758C7.22145 22.0636 6.919 21.7611 6.919 21.3791V4.824C6.919 4.45787 7.22145 4.15543 7.58758 4.15543H13.0794V9.53583C13.0794 10.6342 13.9708 11.5256 15.0692 11.5256H20.4337V21.395C20.4337 21.7611 20.1312 22.0636 19.7651 22.0636Z" fill="#FAA700"/>
<path d="M10.1025 14.5186H17.2658H10.1025ZM10.1025 18.323H17.2658H10.1025Z" fill="#FAA700"/>
<path d="M10.1025 14.5186H17.2658M10.1025 18.323H17.2658" stroke="#FAA700" stroke-width="1.824" stroke-linecap="round" stroke-linejoin="round"/>
</svg>
