<svg width="27" height="27" viewBox="0 0 27 27" fill="none" xmlns="http://www.w3.org/2000/svg">
<g clip-path="url(#clip0_2026_4407)">
<path d="M13.4987 26.0476C20.4971 26.0662 26.2595 20.326 26.2826 13.3277C26.3057 6.34137 20.569 0.570455 13.5828 0.551803C6.58439 0.533119 0.821928 6.27333 0.798897 13.2596C0.775828 20.258 6.51241 26.0289 13.4987 26.0476ZM12.1935 19.3473C11.6505 19.3459 11.229 19.1034 10.8445 18.6318L8.02004 15.2457C7.74363 14.9071 7.63603 14.6051 7.63718 14.2552C7.63965 13.5072 8.2449 12.9175 8.98094 12.9195C9.4153 12.9207 9.75263 13.0904 10.0771 13.4775L12.1681 16.0772L16.8985 8.60884C17.214 8.10289 17.6129 7.85057 18.0835 7.85183C18.8075 7.85376 19.4694 8.38644 19.4669 9.13457C19.466 9.43617 19.3442 9.76167 19.126 10.0748L13.4991 18.6268C13.1838 19.0845 12.7124 19.3487 12.1935 19.3473Z" fill="#F8792A"/>
</g>
<defs>
<clipPath id="clip0_2026_4407">
<rect width="26" height="26" fill="white" transform="translate(0.68457 0.380859)"/>
</clipPath>
</defs>
</svg>
