<svg width="27" height="27" viewBox="0 0 27 27" fill="none" xmlns="http://www.w3.org/2000/svg">
<path d="M25.1526 15.019C25.147 13.9062 23.6722 12.9109 21.7746 12.9057L17.9064 12.8951C17.3955 12.8937 17.2134 12.7809 16.8952 12.4435L10.6313 5.57178C10.4222 5.34677 10.1854 5.23391 9.92082 5.23319L8.57053 5.22949C8.33336 5.22884 8.18668 5.45287 8.30445 5.70568L11.5476 12.8589L6.80181 13.379L5.11452 10.382C4.97842 10.1478 4.77804 10.0444 4.4861 10.0436L4.05731 10.0424C3.79274 10.0417 3.60968 10.2282 3.60883 10.4901L3.58008 19.4299C3.57924 19.6917 3.7611 19.8792 4.02567 19.8799L4.45446 19.8811C4.7464 19.8819 4.94748 19.7703 5.08504 19.5462L6.79158 16.5584L11.5339 17.1044L8.2449 24.2305C8.12543 24.492 8.27071 24.7168 8.50788 24.7175L9.8581 24.7212C10.1227 24.7219 10.3603 24.6104 10.5708 24.3865L16.8787 17.5492C17.1992 17.2041 17.3819 17.1018 17.8929 17.1031L21.7611 17.1137C23.6587 17.1189 25.1398 16.1318 25.1526 15.019Z" fill="#EA4E43"/>
</svg>
