<svg width="191" height="55" viewBox="0 0 191 55" fill="none" xmlns="http://www.w3.org/2000/svg">
<path d="M22.5 37.625C26.6421 37.625 30 33.8194 30 29.125C30 24.4306 26.6421 20.625 22.5 20.625C18.3579 20.625 15 24.4306 15 29.125C15 33.8194 18.3579 37.625 22.5 37.625Z" fill="#19BCFE"/>
<path fill-rule="evenodd" clip-rule="evenodd" d="M7.5 54.625C11.6421 54.625 15 50.8194 15 46.125C15 44.8435 15 42.0102 15 37.625C11.6307 37.625 9.1307 37.625 7.5 37.625C3.35786 37.625 0 41.4306 0 46.125C0 50.8194 3.35786 54.625 7.5 54.625Z" fill="#09CF83"/>
<path fill-rule="evenodd" clip-rule="evenodd" d="M7.5 37.625H15V20.625C11.3807 20.625 8.88071 20.625 7.5 20.625C3.35786 20.625 0 24.4306 0 29.125C0 33.8194 3.35786 37.625 7.5 37.625Z" fill="#A259FF"/>
<path fill-rule="evenodd" clip-rule="evenodd" d="M7.5 20.625H15V3.625C11.3807 3.625 8.88071 3.625 7.5 3.625C3.35786 3.625 0 7.43058 0 12.125C0 16.8194 3.35786 20.625 7.5 20.625Z" fill="#F24E1E"/>
<path fill-rule="evenodd" clip-rule="evenodd" d="M22.5 20.625H15V3.625H22.5C26.6421 3.625 30 7.43058 30 12.125C30 16.8194 26.6421 20.625 22.5 20.625Z" fill="#FF7262"/>
<path d="M97.0032 4.69904C97.0032 3.06668 95.1756 3.06667 94.3633 3.27071C95.5004 2.37291 96.834 2.59059 97.3078 2.86264L108.29 8.24745C109.336 8.76054 110 9.82812 110 10.9981V46.4222C110 47.6078 109.318 48.6868 108.251 49.1916L97.9171 54.0779C97.2062 54.3838 95.6629 55.1389 94.3633 54.0777C95.9879 54.384 96.8678 53.2277 97.0032 52.4455V4.69904Z" fill="url(#paint0_linear_2026_4190)"/>
<path d="M94.4951 3.24097C95.3572 3.07061 97.0034 3.14961 97.0034 4.69873V16.8922L63.7081 42.0802C63.1261 42.5205 62.3071 42.4473 61.8114 41.911L58.3798 38.1978C57.8423 37.6161 57.8799 36.7056 58.4636 36.1707L94.3632 3.2704L94.4951 3.24097Z" fill="url(#paint1_linear_2026_4190)"/>
<path d="M97.0034 40.4568L63.7081 15.2687C63.1261 14.8285 62.3071 14.9015 61.8114 15.4379L58.3798 19.1511C57.8423 19.7327 57.8799 20.6433 58.4636 21.1783L94.3632 54.0786C95.9879 54.3846 96.868 53.2283 97.0034 52.4461V40.4568Z" fill="url(#paint2_linear_2026_4190)"/>
<path d="M155.727 43.984C155.727 44.2099 155.481 44.3906 155.172 44.3906C154.819 44.4245 154.573 44.2438 154.573 43.984C154.573 43.7581 154.819 43.5773 155.129 43.5773C155.449 43.5434 155.727 43.7242 155.727 43.984ZM152.404 43.4757C152.329 43.7016 152.543 43.9614 152.864 44.0291C153.141 44.1421 153.462 44.0291 153.526 43.8032C153.59 43.5773 153.387 43.3175 153.067 43.2159C152.789 43.1368 152.479 43.2498 152.404 43.4757ZM157.127 43.2837C156.817 43.3627 156.603 43.5773 156.635 43.8371C156.668 44.063 156.945 44.2099 157.266 44.1308C157.576 44.0517 157.79 43.8371 157.757 43.6112C157.725 43.3966 157.437 43.2498 157.127 43.2837ZM164.158 0C149.337 0 138 11.894 138 27.5606C138 40.0871 145.458 50.8063 156.112 54.579C157.48 54.8388 157.96 53.9464 157.96 53.2122C157.96 52.5119 157.928 48.6489 157.928 46.2769C157.928 46.2769 150.449 47.9712 148.878 42.9109C148.878 42.9109 147.66 39.624 145.907 38.7768C145.907 38.7768 143.46 37.0035 146.078 37.0373C146.078 37.0373 148.739 37.2633 150.203 39.9515C152.543 44.3115 156.465 43.0578 157.993 42.3123C158.238 40.505 158.933 39.2512 159.702 38.5057C153.729 37.8054 147.702 36.8905 147.702 26.0244C147.702 22.9182 148.515 21.3594 150.224 19.3715C149.946 18.6373 149.038 15.6101 150.502 11.7019C152.735 10.9678 157.875 14.7517 157.875 14.7517C160.012 14.1191 162.309 13.7916 164.585 13.7916C166.861 13.7916 169.159 14.1191 171.296 14.7517C171.296 14.7517 176.436 10.9565 178.669 11.7019C180.133 15.6214 179.225 18.6373 178.947 19.3715C180.656 21.3707 181.704 22.9295 181.704 26.0244C181.704 36.9244 175.41 37.7941 169.437 38.5057C170.42 39.3981 171.253 41.0924 171.253 43.7468C171.253 47.5533 171.221 52.2634 171.221 53.1897C171.221 53.9238 171.713 54.8162 173.07 54.5564C183.755 50.8063 191 40.0871 191 27.5606C191 11.894 178.979 0 164.158 0ZM148.386 38.9576C148.247 39.0705 148.279 39.3303 148.461 39.5449C148.632 39.7256 148.878 39.8047 149.017 39.6579C149.156 39.5449 149.124 39.2851 148.942 39.0705C148.771 38.8898 148.525 38.8107 148.386 38.9576ZM147.232 38.0426C147.157 38.1895 147.264 38.3702 147.478 38.4832C147.649 38.5961 147.863 38.5622 147.938 38.4041C148.012 38.2572 147.905 38.0765 147.692 37.9636C147.478 37.8958 147.307 37.9297 147.232 38.0426ZM150.694 42.0638C150.523 42.2106 150.588 42.5495 150.833 42.7641C151.079 43.0239 151.389 43.0578 151.528 42.877C151.667 42.7302 151.603 42.3913 151.389 42.1767C151.154 41.9169 150.833 41.883 150.694 42.0638ZM149.476 40.4034C149.305 40.5163 149.305 40.81 149.476 41.0698C149.647 41.3296 149.936 41.4425 150.075 41.3296C150.246 41.1827 150.246 40.8891 150.075 40.6293C149.925 40.3695 149.647 40.2565 149.476 40.4034Z" fill="black"/>
<defs>
<linearGradient id="paint0_linear_2026_4190" x1="102.182" y1="2.625" x2="102.182" y2="54.625" gradientUnits="userSpaceOnUse">
<stop stop-color="#32B5F1"/>
<stop offset="1" stop-color="#2B9FED"/>
</linearGradient>
<linearGradient id="paint1_linear_2026_4190" x1="97.0034" y1="9.18769" x2="59.8974" y2="40.3341" gradientUnits="userSpaceOnUse">
<stop stop-color="#0F6FB3"/>
<stop offset="0.270551" stop-color="#1279B7"/>
<stop offset="0.421376" stop-color="#1176B5"/>
<stop offset="0.618197" stop-color="#0E69AC"/>
<stop offset="0.855344" stop-color="#0F70AF"/>
<stop offset="1" stop-color="#0F6DAD"/>
</linearGradient>
<linearGradient id="paint2_linear_2026_4190" x1="60.1454" y1="17.4525" x2="97.1469" y2="48.0896" gradientUnits="userSpaceOnUse">
<stop stop-color="#1791D2"/>
<stop offset="1" stop-color="#1173C5"/>
</linearGradient>
</defs>
</svg>
